<svg id="Layer_1" data-name="Layer 1" xmlns="http://www.w3.org/2000/svg" viewBox="0 0 57.8 57.8"><polygon points="42.91 25.87 41.05 23.99 38.56 26.44 36.08 23.99 34.22 25.87 36.68 28.31 34.22 30.74 36.08 32.63 38.56 30.17 41.05 32.63 42.91 30.74 40.45 28.31 42.91 25.87"/><polygon points="21.57 23.99 19.09 26.45 16.61 23.99 14.74 25.88 17.2 28.31 14.74 30.75 16.61 32.63 19.09 30.18 21.57 32.63 23.43 30.75 20.97 28.31 23.43 25.88 21.57 23.99"/><path d="M6.81,47.3a3.68,3.68,0,0,1,1.77-3.14.56.56,0,0,0,0-1.08,3.67,3.67,0,0,1,0-6.28.56.56,0,0,0,0-1.08,3.67,3.67,0,0,1,0-6.28.56.56,0,0,0,0-1.08,3.67,3.67,0,0,1,0-6.28.56.56,0,0,0,0-1.08,3.67,3.67,0,0,1,0-6.28.56.56,0,0,0,0-1.08,3.68,3.68,0,1,1,5.05-5.06.66.66,0,0,0,.55.4.65.65,0,0,0,.54-.4,3.66,3.66,0,0,1,6.27,0,.66.66,0,0,0,.55.4.65.65,0,0,0,.54-.4,3.66,3.66,0,0,1,6.27,0,.66.66,0,0,0,.55.4.65.65,0,0,0,.54-.4,3.66,3.66,0,0,1,6.27,0,.66.66,0,0,0,.55.4.65.65,0,0,0,.54-.4,3.66,3.66,0,0,1,6.27,0,.66.66,0,0,0,.55.4.65.65,0,0,0,.54-.4,3.68,3.68,0,1,1,5.06,5.05.66.66,0,0,0-.4.55.65.65,0,0,0,.4.54,3.66,3.66,0,0,1,0,6.27.66.66,0,0,0-.4.55.65.65,0,0,0,.4.54,3.66,3.66,0,0,1,0,6.27.66.66,0,0,0-.4.55.65.65,0,0,0,.4.54,3.66,3.66,0,0,1,0,6.27.66.66,0,0,0-.4.55.65.65,0,0,0,.4.54,3.66,3.66,0,0,1,0,6.27.66.66,0,0,0-.4.55.65.65,0,0,0,.4.54,3.68,3.68,0,1,1-5,5.06.66.66,0,0,0-.55-.4.63.63,0,0,0-.54.4,3.66,3.66,0,0,1-6.27,0,.66.66,0,0,0-.55-.4.63.63,0,0,0-.54.4,3.66,3.66,0,0,1-6.27,0,.66.66,0,0,0-.55-.4.63.63,0,0,0-.54.4,3.66,3.66,0,0,1-6.27,0,.66.66,0,0,0-.55-.4.63.63,0,0,0-.54.4,3.66,3.66,0,0,1-6.27,0,.66.66,0,0,0-.55-.4.63.63,0,0,0-.54.4A3.68,3.68,0,0,1,6.81,47.3ZM54,28.9a7.6,7.6,0,0,0,0-7.36,7.6,7.6,0,0,0,0-7.36A7.65,7.65,0,0,0,43.62,3.79a7.6,7.6,0,0,0-7.36,0,7.67,7.67,0,0,0-7.36,0,7.67,7.67,0,0,0-7.36,0,7.67,7.67,0,0,0-7.36,0A7.65,7.65,0,0,0,3.79,14.18a7.6,7.6,0,0,0,0,7.36,7.6,7.6,0,0,0,0,7.36,7.6,7.6,0,0,0,0,7.36,7.62,7.62,0,0,0,0,7.37A7.64,7.64,0,0,0,10.5,55a7.52,7.52,0,0,0,3.68-1,7.6,7.6,0,0,0,7.36,0,7.6,7.6,0,0,0,7.36,0,7.6,7.6,0,0,0,7.36,0A7.56,7.56,0,0,0,40,55a7.66,7.66,0,0,0,3.68-1A7.65,7.65,0,0,0,54,43.62a7.6,7.6,0,0,0,0-7.36,7.63,7.63,0,0,0,1-3.68A7.52,7.52,0,0,0,54,28.9Z"/></svg>