<svg xmlns="http://www.w3.org/2000/svg" viewBox="0 0 59.12 59.12"><g id="Layer_1" data-name="Layer 1"><path d="M53.6,44.29a6.72,6.72,0,0,0,0-7.37,6.71,6.71,0,0,0,0-7.36,6.71,6.71,0,0,0,0-7.36,6.71,6.71,0,0,0,0-7.36A6.73,6.73,0,0,0,48,4.42a6.63,6.63,0,0,0-3.68,1.1,6.71,6.71,0,0,0-7.36,0,6.71,6.71,0,0,0-7.36,0,6.71,6.71,0,0,0-7.36,0,6.71,6.71,0,0,0-7.36,0A6.73,6.73,0,0,0,4.42,11.16a6.63,6.63,0,0,0,1.1,3.68,6.71,6.71,0,0,0,0,7.36,6.71,6.71,0,0,0,0,7.36,6.71,6.71,0,0,0,0,7.36,6.71,6.71,0,0,0,0,7.36A6.63,6.63,0,0,0,4.42,48a6.74,6.74,0,0,0,10.42,5.65,6.76,6.76,0,0,0,7.36,0,6.76,6.76,0,0,0,7.36,0,6.76,6.76,0,0,0,7.36,0,6.76,6.76,0,0,0,7.36,0,6.73,6.73,0,0,0,9.32-9.32ZM48,51.65a3.65,3.65,0,0,1-3.13-1.77.66.66,0,0,0-.55-.4.63.63,0,0,0-.54.4,3.66,3.66,0,0,1-6.27,0,.66.66,0,0,0-.55-.4.63.63,0,0,0-.54.4,3.66,3.66,0,0,1-6.27,0,.66.66,0,0,0-.55-.4.63.63,0,0,0-.54.4,3.66,3.66,0,0,1-6.27,0,.66.66,0,0,0-.55-.4.63.63,0,0,0-.54.4,3.66,3.66,0,0,1-6.27,0,.66.66,0,0,0-.55-.4.63.63,0,0,0-.54.4,3.68,3.68,0,1,1-5.06-5.06.56.56,0,0,0,0-1.08,3.67,3.67,0,0,1,0-6.28.56.56,0,0,0,0-1.08,3.67,3.67,0,0,1,0-6.28.56.56,0,0,0,0-1.08,3.67,3.67,0,0,1,0-6.28.56.56,0,0,0,0-1.08,3.67,3.67,0,0,1,0-6.28.56.56,0,0,0,0-1.08,3.68,3.68,0,1,1,5-5.06.66.66,0,0,0,.55.4.65.65,0,0,0,.54-.4,3.66,3.66,0,0,1,6.27,0,.66.66,0,0,0,.55.4.65.65,0,0,0,.54-.4,3.66,3.66,0,0,1,6.27,0,.66.66,0,0,0,.55.4.65.65,0,0,0,.54-.4,3.66,3.66,0,0,1,6.27,0,.66.66,0,0,0,.55.4.65.65,0,0,0,.54-.4,3.66,3.66,0,0,1,6.27,0,.66.66,0,0,0,.55.4.65.65,0,0,0,.54-.4,3.68,3.68,0,1,1,5.06,5,.66.66,0,0,0-.4.55.65.65,0,0,0,.4.54,3.66,3.66,0,0,1,0,6.27.66.66,0,0,0-.4.55.65.65,0,0,0,.4.54,3.66,3.66,0,0,1,0,6.27.66.66,0,0,0-.4.55.65.65,0,0,0,.4.54,3.66,3.66,0,0,1,0,6.27.66.66,0,0,0-.4.55.65.65,0,0,0,.4.54,3.66,3.66,0,0,1,0,6.27.66.66,0,0,0-.4.55.65.65,0,0,0,.4.54A3.68,3.68,0,0,1,48,51.65Z"/><polygon points="24.05 26.49 22.24 24.68 19.74 27.18 17.23 24.7 15.44 26.51 17.94 28.99 15.45 31.48 17.25 33.28 19.75 30.78 22.26 33.27 24.06 31.45 21.55 28.98 24.05 26.49"/><polygon points="43.52 26.49 41.72 24.68 39.22 27.18 36.71 24.7 34.91 26.51 37.41 28.99 34.92 31.48 36.73 33.28 39.23 30.78 41.74 33.27 43.53 31.45 41.03 28.98 43.52 26.49"/></g></svg>