<svg id="Layer_1" data-name="Layer 1" xmlns="http://www.w3.org/2000/svg" viewBox="0 0 143.44 123.72"><defs><style>.cls-1{font-size:25px;font-family:DIN2014-Bold, "DIN 2014";font-weight:700;letter-spacing:0.04em;}.cls-2{letter-spacing:0.04em;}.cls-3{letter-spacing:0.06em;}.cls-4{letter-spacing:0.05em;}.cls-5{letter-spacing:0.05em;}.cls-6{letter-spacing:0.04em;}.cls-7{letter-spacing:0.04em;}.cls-8{letter-spacing:0.05em;}</style></defs><text class="cls-1" transform="translate(0.28 21.13)">D<tspan class="cls-2" x="16.6" y="0">I</tspan><tspan class="cls-3" x="24.89" y="0">R</tspan><tspan class="cls-4" x="41.83" y="0">T</tspan><tspan class="cls-5" x="56.59" y="0">B</tspan><tspan class="cls-6" x="73.09" y="0">A</tspan><tspan class="cls-7" x="89.18" y="0">G</tspan><tspan class="cls-8" x="105.5" y="0">S</tspan></text><path d="M5.5,33.55a1.7,1.7,0,0,0-1.63-.84c-.76,0-1.17.35-1.17.92s.53.93,1.63,1.21c1.73.43,2.51,1.08,2.51,2.54S5.93,39.79,4,39.79a3.68,3.68,0,0,1-3.2-1.35l1.29-.89a2.07,2.07,0,0,0,1.8.83c1,0,1.28-.42,1.28-.93s-.35-.9-1.69-1.25C1.84,35.77,1,35,1,33.63s.87-2.33,2.83-2.33a3.2,3.2,0,0,1,2.9,1.35Z"/><path d="M15.06,31.41v1.42H12.78v6.85H11.1V32.83H8.82V31.41Z"/><path d="M23.64,31.41v4.91c0,2.45-1.35,3.47-3.18,3.47s-3.18-1-3.18-3.45V31.41H19v4.93c0,1.41.47,2,1.5,2s1.5-.63,1.5-2V31.41Z"/><path d="M31.57,31.41v1.42H28.09v2.05h3.12V36.3H28.09v3.38H26.42V31.41Z"/><path d="M39,31.41v1.42H35.56v1.86h3.12v1.42H35.56v2.16H39v1.41H33.88V31.41Z"/><path d="M41.5,39.68V31.41h2.94c1.87,0,3.17,1,3.17,3.59v1.08c0,2.63-1.3,3.6-3.17,3.6Zm4.43-3.6V35c0-1.42-.38-2.17-1.49-2.17H43.18v5.44h1.26C45.55,38.27,45.93,37.51,45.93,36.08Z"/><path d="M53.53,39.68l2.88-8.27H58l2.88,8.27H59.11l-.5-1.57H55.84l-.51,1.57Zm2.75-3h1.87l-.93-2.92Z"/><path d="M69.28,31.41v8.27h-1.4l-3.23-5.12v5.12H63.06V31.41h1.39l3.24,5.19V31.41Z"/><path d="M73.44,31.41l1.48,3.08,1.49-3.08h1.93L75.76,36.3v3.38H74.08V36.3L71.5,31.41Z"/><path d="M84.45,35.92l2.3-4.51h1.6v8.27H86.74V34.55l-1.8,3.65h-1l-1.77-3.62v5.1h-1.6V31.41h1.58Z"/><path d="M90.52,39.68l2.87-8.27H95l2.88,8.27H96.09l-.5-1.57H92.82l-.5,1.57Zm2.74-3h1.87l-.93-2.92Z"/><path d="M101.72,38.27h3.48v1.41H100V31.41h1.68Z"/><path d="M111.91,33.55a1.71,1.71,0,0,0-1.64-.84c-.75,0-1.16.35-1.16.92s.53.93,1.63,1.21c1.73.43,2.51,1.08,2.51,2.54s-.91,2.41-2.86,2.41a3.68,3.68,0,0,1-3.19-1.35l1.29-.89a2.06,2.06,0,0,0,1.8.83c1,0,1.28-.42,1.28-.93s-.35-.9-1.69-1.25c-1.63-.43-2.45-1.21-2.45-2.57s.87-2.33,2.83-2.33a3.23,3.23,0,0,1,2.91,1.35Z"/><path d="M122.66,39.68h-1.6l-1.89-8.27H121l1.1,5.44,1.57-5.44h1.51l1.62,5.48,1.09-5.48h1.81l-1.9,8.27h-1.61L124.41,34Z"/><path d="M133.64,39.68H132V31.41h1.68Z"/><path d="M142.14,31.41v1.42h-2.28v6.85h-1.68V32.83H135.9V31.41Z"/><path d="M5.7,54.08,4.21,50.83H2.87v3.25H1.19V45.81h3c1.91,0,3.1.85,3.1,2.53a2.22,2.22,0,0,1-1.42,2.22l1.72,3.52ZM4,49.42c1,0,1.57-.22,1.57-1.08S5,47.23,4,47.23H2.87v2.19Z"/><path d="M15,45.81v1.42H11.52v1.86h3.11v1.42H11.52v2.16H15v1.41H9.84V45.81Z"/><path d="M22.61,45.81v1.42H19.13v1.86h3.12v1.42H19.13v2.16h3.48v1.41H17.45V45.81Z"/><path d="M26.75,52.67h3.48v1.41H25.07V45.81h1.68Z"/><path d="M38.2,52.67h3.47v1.41H36.52V45.81H38.2Z"/><path d="M44.16,45.81l1.47,3.08,1.49-3.08h1.93L46.47,50.7v3.38H44.79V50.7l-2.58-4.89Z"/><path d="M56.43,45.81v1.42H53v2.06h3.12V50.7H53v3.38H51.27V45.81Z"/><path d="M63.89,45.81v1.42H60.41v1.86h3.12v1.42H60.41v2.16h3.48v1.41H58.73V45.81Z"/><path d="M72.14,51.17v2.91H70.46V45.81h3c1.91,0,3.09.87,3.09,2.65s-1.17,2.71-3.09,2.71Zm1-1.42c1.16,0,1.65-.4,1.65-1.29s-.49-1.23-1.65-1.23h-1v2.52Z"/><path d="M83.3,54.08l-1.48-3.25H80.47v3.25H78.79V45.81h3c1.91,0,3.1.85,3.1,2.53a2.22,2.22,0,0,1-1.42,2.22l1.72,3.52Zm-1.7-4.66c1,0,1.57-.22,1.57-1.08s-.58-1.11-1.57-1.11H80.47v2.19Z"/><path d="M90.32,54.19c-1.86,0-3.17-1.13-3.17-3.66V49.36c0-2.56,1.31-3.66,3.17-3.66s3.18,1.1,3.18,3.66v1.17C93.5,53.06,92.19,54.19,90.32,54.19Zm-1.49-3.66c0,1.59.52,2.25,1.49,2.25s1.5-.66,1.5-2.25V49.36c0-1.59-.53-2.24-1.5-2.24s-1.49.65-1.49,2.24Z"/><path d="M98.83,45.81c2,0,3,.69,3,2.17a1.86,1.86,0,0,1-1.09,1.76,1.92,1.92,0,0,1,1.35,2c0,1.28-.84,2.37-3,2.37h-3V45.81Zm-1.1,3.27h1.12c.92,0,1.32-.36,1.32-.95s-.29-.91-1.5-.91h-.94Zm0,3.59h1.21c1,0,1.49-.39,1.49-1.09s-.51-1.08-1.64-1.08H97.73Z"/><path d="M106.21,52.67h3.47v1.41h-5.15V45.81h1.68Z"/><path d="M113.63,54.08H112V45.81h1.68Z"/><path d="M120.36,50.32l2.31-4.51h1.59v8.27h-1.61V49l-1.79,3.65h-1L118.06,49v5.09h-1.59V45.81H118Z"/><path d="M131.36,48a1.68,1.68,0,0,0-1.63-.83c-.76,0-1.17.34-1.17.91s.53.93,1.63,1.21c1.73.43,2.51,1.08,2.51,2.54s-.91,2.41-2.85,2.41a3.65,3.65,0,0,1-3.19-1.35l1.28-.89a2.07,2.07,0,0,0,1.8.83c1,0,1.28-.42,1.28-.93s-.35-.9-1.69-1.25c-1.63-.43-2.45-1.21-2.45-2.57s.87-2.33,2.83-2.33a3.23,3.23,0,0,1,2.91,1.35Z"/><polygon points="40.06 94.63 38.2 92.75 35.72 95.21 33.24 92.75 31.37 94.63 33.84 97.07 31.37 99.51 33.24 101.39 35.72 98.93 38.2 101.39 40.06 99.51 37.6 97.07 40.06 94.63"/><polygon points="18.73 92.75 16.24 95.21 13.76 92.75 11.9 94.64 14.36 97.08 11.9 99.51 13.76 101.4 16.24 98.94 18.72 101.4 20.59 99.51 18.13 97.08 20.59 94.64 18.73 92.75"/><path d="M4,116.07a3.67,3.67,0,0,1,1.77-3.14.66.66,0,0,0,.4-.55.65.65,0,0,0-.4-.54,3.66,3.66,0,0,1,0-6.27.66.66,0,0,0,.4-.55.65.65,0,0,0-.4-.54,3.66,3.66,0,0,1,0-6.27.66.66,0,0,0,.4-.55.65.65,0,0,0-.4-.54,3.66,3.66,0,0,1,0-6.27.66.66,0,0,0,.4-.55.65.65,0,0,0-.4-.54,3.66,3.66,0,0,1,0-6.27.66.66,0,0,0,.4-.55.65.65,0,0,0-.4-.54,3.68,3.68,0,1,1,5-5.05.66.66,0,0,0,.54.39.67.67,0,0,0,.55-.39,3.66,3.66,0,0,1,6.27,0,.66.66,0,0,0,.54.39.67.67,0,0,0,.55-.39,3.66,3.66,0,0,1,6.27,0,.66.66,0,0,0,.54.39.67.67,0,0,0,.55-.39,3.66,3.66,0,0,1,6.27,0,.66.66,0,0,0,.54.39.67.67,0,0,0,.55-.39,3.66,3.66,0,0,1,6.27,0,.66.66,0,0,0,.54.39.67.67,0,0,0,.55-.39,3.67,3.67,0,1,1,5,5,.67.67,0,0,0-.39.55.64.64,0,0,0,.39.54,3.66,3.66,0,0,1,0,6.27.67.67,0,0,0-.39.55.64.64,0,0,0,.39.54,3.66,3.66,0,0,1,0,6.27.67.67,0,0,0-.39.55.64.64,0,0,0,.39.54,3.66,3.66,0,0,1,0,6.27A.67.67,0,0,0,46,105a.64.64,0,0,0,.39.54,3.66,3.66,0,0,1,0,6.27.67.67,0,0,0-.39.55.64.64,0,0,0,.39.54,3.68,3.68,0,1,1-5,5.06.65.65,0,0,0-.54-.4.66.66,0,0,0-.55.4A3.66,3.66,0,0,1,34,118a.65.65,0,0,0-.54-.4.66.66,0,0,0-.55.4,3.66,3.66,0,0,1-6.27,0,.65.65,0,0,0-.54-.4.66.66,0,0,0-.55.4,3.66,3.66,0,0,1-6.27,0,.65.65,0,0,0-.54-.4.66.66,0,0,0-.55.4,3.66,3.66,0,0,1-6.27,0,.65.65,0,0,0-.54-.4.66.66,0,0,0-.55.4A3.68,3.68,0,0,1,4,116.07Zm47.2-18.41a7.67,7.67,0,0,0,0-7.36,7.67,7.67,0,0,0,0-7.36A7.65,7.65,0,0,0,40.78,72.55a7.67,7.67,0,0,0-7.36,0,7.67,7.67,0,0,0-7.36,0,7.69,7.69,0,0,0-7.37,0,7.67,7.67,0,0,0-7.36,0A7.65,7.65,0,0,0,.94,82.94a7.67,7.67,0,0,0,0,7.36,7.67,7.67,0,0,0,0,7.36,7.67,7.67,0,0,0,0,7.36,7.69,7.69,0,0,0,0,7.37,7.65,7.65,0,0,0,10.39,10.39,7.69,7.69,0,0,0,7.37,0,7.67,7.67,0,0,0,7.36,0,7.67,7.67,0,0,0,7.36,0,7.67,7.67,0,0,0,7.36,0,7.65,7.65,0,0,0,10.39-10.39,7.69,7.69,0,0,0,0-7.37,7.67,7.67,0,0,0,0-7.36Z"/></svg>