<svg id="Layer_5" data-name="Layer 5" xmlns="http://www.w3.org/2000/svg" viewBox="0 0 120 120"><defs><style>.cls-1{fill:#f5f83a;}.cls-2{fill:none;stroke:#f5f83a;stroke-miterlimit:10;stroke-width:2.85px;}</style></defs><path class="cls-1" d="M60.62,71.29a1.68,1.68,0,0,0,.78-.36c.79-.51,6.39-4.29,8.76-8.9a8.6,8.6,0,0,0,1.07-3.91,6,6,0,0,0-6.33-6.31,5.83,5.83,0,0,0-.59,0,6.17,6.17,0,0,0-3.69,1.9,6.14,6.14,0,0,0-3.69-1.9,5.68,5.68,0,0,0-.59,0A6,6,0,0,0,50,58.12,8.6,8.6,0,0,0,51.08,62c2.38,4.61,8,8.39,8.77,8.9A1.6,1.6,0,0,0,60.62,71.29Zm0-3.27c-2.72-2-7.77-6.29-7.77-9.9a3.2,3.2,0,0,1,3.49-3.47,5.32,5.32,0,0,1,3.45,1.74h0l.83.79.83-.79h0a5.35,5.35,0,0,1,3.45-1.74h0a3.2,3.2,0,0,1,3.49,3.47C68.39,61.72,63.34,66.07,60.62,68Z"/><line class="cls-2" x1="60.62" y1="39.13" x2="60.62" y2="55.39"/><line class="cls-2" x1="53.8" y1="53.8" x2="45.42" y2="45.42"/><line class="cls-2" x1="51.87" y1="60.62" x2="39.13" y2="60.62"/><line class="cls-2" x1="55.61" y1="65.63" x2="45.42" y2="75.82"/><line class="cls-2" x1="60.62" y1="69.74" x2="60.62" y2="82.12"/><line class="cls-2" x1="65.63" y1="65.63" x2="75.82" y2="75.82"/><line class="cls-2" x1="68.8" y1="60.62" x2="82.12" y2="60.62"/><line class="cls-2" x1="67.44" y1="53.8" x2="75.82" y2="45.42"/><polyline class="cls-2" points="57 43.15 60.62 39.13 64.25 43.15"/><polyline class="cls-2" points="70.42 45.71 75.82 45.42 75.54 50.83"/><polyline class="cls-2" points="78.09 57 82.12 60.62 78.09 64.25"/><polyline class="cls-2" points="75.54 70.42 75.82 75.82 70.42 75.54"/><polyline class="cls-2" points="64.25 78.1 60.62 82.12 57 78.1"/><polyline class="cls-2" points="50.83 75.54 45.42 75.82 45.71 70.42"/><polyline class="cls-2" points="43.15 64.25 39.13 60.62 43.15 57"/><polyline class="cls-2" points="45.71 50.83 45.42 45.42 50.83 45.71"/></svg>