<svg xmlns="http://www.w3.org/2000/svg" viewBox="0 0 441.28 446.79"><defs><style>.cls-1{fill:#c62026;}.cls-2{fill:#ec5f23;}.cls-3{fill:#179896;}.cls-4{fill:#bccf31;}.cls-5{fill:#c82027;}.cls-6{fill:#231f20;}</style></defs><g id="Layer_2" data-name="Layer 2"><path class="cls-1" d="M225.48,302.05v1.39a88.45,88.45,0,0,0,87.19-87.27h-1.4A87.05,87.05,0,0,1,225.48,302.05Z"/><path class="cls-2" d="M311.23,216.12h1.4a88.45,88.45,0,0,0-87.19-87.21v1.4A87,87,0,0,1,311.23,216.12Z"/><path class="cls-3" d="M225.44,130.31v-1.4a88.43,88.43,0,0,0-87.23,87.21h1.4A87,87,0,0,1,225.44,130.31Z"/><path class="cls-4" d="M139.61,216.15h-1.4a88.45,88.45,0,0,0,87.23,87.28V302A87,87,0,0,1,139.61,216.15Z"/><path class="cls-2" d="M120.85,216.15h-1.4a107.21,107.21,0,0,0,106,106v-1.39A105.83,105.83,0,0,1,120.85,216.15Z"/><path class="cls-1" d="M330,216.12h1.39a107.21,107.21,0,0,0-105.94-106v1.39A105.83,105.83,0,0,1,330,216.12Z"/><path class="cls-4" d="M225.44,111.55v-1.4a107.2,107.2,0,0,0-106,106h1.39A105.8,105.8,0,0,1,225.44,111.55Z"/><path class="cls-3" d="M225.48,320.8v1.4a107.22,107.22,0,0,0,105.94-106H330A105.81,105.81,0,0,1,225.48,320.8Z"/><path class="cls-1" d="M102.1,216.15h-1.4c.57,68.55,56.21,124.21,124.74,124.79v-1.4A124.59,124.59,0,0,1,102.1,216.15Z"/><path class="cls-4" d="M225.48,339.56V341a126,126,0,0,0,124.7-124.79h-1.4A124.61,124.61,0,0,1,225.48,339.56Z"/><path class="cls-3" d="M348.74,216.12h1.4A126,126,0,0,0,225.44,91.4v1.4A124.58,124.58,0,0,1,348.74,216.12Z"/><path class="cls-2" d="M225.44,92.8V91.4A126,126,0,0,0,100.7,216.12h1.4A124.56,124.56,0,0,1,225.44,92.8Z"/><path class="cls-4" d="M367.5,216.12h1.39c-.59-78.83-64.6-142.84-143.45-143.47V74C303.52,74.67,366.9,138.06,367.5,216.12Z"/><path class="cls-2" d="M225.48,358.31v1.4c78.86-.63,142.88-64.67,143.45-143.54h-1.39C367,294.27,303.57,357.69,225.48,358.31Z"/><path class="cls-3" d="M83.34,216.15H82c.57,78.9,64.62,143,143.49,143.54V358.3C147.34,357.72,83.92,294.28,83.34,216.15Z"/><path class="cls-1" d="M225.44,74V72.65C146.58,73.23,82.54,137.26,82,216.12h1.39C83.94,138,147.35,74.62,225.44,74Z"/><path class="cls-2" d="M386.25,216.12h1.4c-.59-89.17-73-161.6-162.21-162.23v1.4C313.86,55.92,385.66,127.72,386.25,216.12Z"/><path class="cls-3" d="M225.44,55.29v-1.4c-89.2.58-161.65,73-162.25,162.23h1.4C65.18,127.69,137,55.87,225.44,55.29Z"/><path class="cls-4" d="M64.59,216.15h-1.4c.58,89.24,73,161.72,162.25,162.3v-1.4C137,376.47,65.16,304.62,64.59,216.15Z"/><path class="cls-1" d="M225.48,377.07v1.4c89.2-.63,161.63-73.09,162.21-162.3h-1.4C385.72,304.61,313.91,376.44,225.48,377.07Z"/><path class="cls-2" d="M45.83,216.15H44.44c.57,99.58,81.45,180.48,181,181.06v-1.4C126.66,395.23,46.41,315,45.83,216.15Z"/><path class="cls-4" d="M225.44,36.53V35.14c-99.54.58-180.41,81.44-181,181h1.39C46.43,117.35,126.67,37.11,225.44,36.53Z"/><path class="cls-1" d="M405,216.12h1.4c-.6-99.51-81.44-180.35-181-181v1.4C324.2,37.17,404.42,117.38,405,216.12Z"/><path class="cls-3" d="M225.48,395.83v1.39c99.54-.63,180.39-81.5,181-181.05h-1.39C404.47,315,324.25,395.19,225.48,395.83Z"/><path class="cls-2" d="M225.44,17.78v-1.4C115.56,17,26.28,106.23,25.68,216.12h1.4C27.67,107,116.33,18.36,225.44,17.78Z"/><path class="cls-3" d="M423.76,216.12h1.4C424.57,106.27,335.32,17,225.44,16.38v1.4C334.55,18.42,423.17,107,423.76,216.12Z"/><path class="cls-4" d="M225.48,414.58V416c109.89-.64,199.14-89.92,199.72-199.81h-1.4C423.23,325.29,334.6,414,225.48,414.58Z"/><path class="cls-1" d="M27.08,216.15h-1.4C26.26,326.07,115.55,415.38,225.44,416v-1.4C116.32,414,27.66,325.3,27.08,216.15Z"/><path class="cls-5" d="M261.6,158.14V181s-3.66-6.19-9.88-16.88c-6.09-10.46-17.58-6.14-17.58,2.87v14s-3.57-6.19-9.8-16.88c-6.09-10.48-17.61-6.14-17.61,2.87V191a1.61,1.61,0,0,1-1.58,1.65h-7.54c-16.3,0-14.85-20.85-1-20.86,0,0,6.44,0,6.44,0v-6h-6.73c-10.91,0-16.6,8.34-16.59,16.54,0,7.91,5.38,16.41,17.17,16.41h14.22a1.73,1.73,0,0,0,1.71-1.71V167.56a3,3,0,0,1,1.95-3,2.9,2.9,0,0,1,3.21,1.22c4,6.56,20,32.14,20.12,32.36a1.22,1.22,0,0,0,1.32.61c.5-.16.79-.74.79-1.55V167.57a2.93,2.93,0,0,1,1.94-3,2.85,2.85,0,0,1,3.21,1.21c4,6.55,20,32.14,20.12,32.35a1.23,1.23,0,0,0,1.36.61c.51-.16.82-.74.82-1.53V158.14h1.53v39.08a2.9,2.9,0,0,1-1.89,3,2.78,2.78,0,0,1-3.1-1.22c-.16-.26-16.14-25.85-20.12-32.37a1.34,1.34,0,0,0-1.47-.6,1.48,1.48,0,0,0-.87,1.54V197.2a2.9,2.9,0,0,1-1.86,3,2.77,2.77,0,0,1-3.06-1.22c-.16-.26-16.14-25.85-20.12-32.38a1.34,1.34,0,0,0-1.47-.59,1.45,1.45,0,0,0-.87,1.53V197a3.28,3.28,0,0,1-3.25,3.25H196.93c-12.85,0-18.71-9.31-18.71-17.95,0-9,6.21-18.06,18.12-18.07h6.74v-6.11H197.4c-33.88,0-33.55,48.29.46,48.3h13.3c5.72,0,9.41-3.38,9.4-9.63V184.57l10.38,17.2c5,8.23,17,6.61,17-3.67V184.58l10.39,17.19c5,8.23,17,6.61,17-3.67v-40Z"/><path class="cls-6" d="M194.72,237.42a2,2,0,0,1-2.3,2.3H184.5a2,2,0,0,1-2.24-2.3V216.85a2,2,0,0,1,2.29-2.32h7.87a2,2,0,0,1,2.3,2.32v5.37h-3.78v-4.45H186v18.72h4.91v-7.05h-2.8v-3.21h6.58Z"/><path class="cls-6" d="M218.87,239.72h-3.93L210.79,228v-2.27h3.7v-8h-4.75v21.95H206V214.53h10a2,2,0,0,1,2.27,2.32V226a2,2,0,0,1-1.08,2.06,7.74,7.74,0,0,1-2.44.24Z"/><path class="cls-6" d="M233.25,239.72h-3.77V214.53h3.77Z"/><path class="cls-6" d="M254.48,239.72h-9.9V214.53h3.77v21.83h6.13Z"/><path class="cls-6" d="M274.86,239.72H265V214.53h3.77v21.83h6.13Z"/><path class="cls-6" d="M194.43,270.61a2,2,0,0,1-2.3,2.31h-7.61a2,2,0,0,1-2.28-2.31v-6H186v5.16h4.62v-5l-7.58-7.18a2.66,2.66,0,0,1-.82-2V250a2,2,0,0,1,2.28-2.33h7.61a2,2,0,0,1,2.3,2.29v5.66h-3.79V250.8H186v4.58l7.58,7.14a2.71,2.71,0,0,1,.83,2.06Z"/><path class="cls-6" d="M220,272.92h-4.09L213.11,264l-2.8,8.91h-4v-.13L211,260q-4.44-12.29-4.43-12.35h4.05l2.52,8.24,2.54-8.24h4v.14l-4.43,12.11Z"/><path class="cls-6" d="M244,270.61a2,2,0,0,1-2.29,2.31h-7.62a2,2,0,0,1-2.28-2.31v-6h3.78v5.16h4.63v-5l-7.58-7.18a2.67,2.67,0,0,1-.83-2V250a2,2,0,0,1,2.28-2.33h7.62a2,2,0,0,1,2.29,2.29v5.66h-3.78V250.8h-4.63v4.58l7.59,7.14a2.7,2.7,0,0,1,.82,2.06Z"/><path class="cls-6" d="M275.61,247.62,271.9,273h-3.7l-2.26-14.34c0-.52-.07-1.29-.13-2.31,0,.52-.05,1.29-.13,2.31L263.43,273h-3.72L256,247.62h3.83l2,15c0,.52.07,1.29.13,2.31,0-.51.06-1.28.14-2.31l2.19-15h3.1l2.18,15c0,.52.08,1.29.15,2.31,0-.51.05-1.28.13-2.31l1.95-15Z"/></g></svg>